<?xml version="1.0" encoding="UTF-8"?>
<svg id="Capa_1" data-name="Capa 1" xmlns="http://www.w3.org/2000/svg" viewBox="0 0 844.6 78">
  <defs>
    <style>
      .cls-1 {
        fill: #d33d00;
        stroke-width: 0px;
      }
    </style>
  </defs>
  <path class="cls-1" d="M73.25,3.89v67.89h-.57s-.01.02-.01.02c-.02-.09-.02-.2-.03-.29l-.18.39c.19-.19-45.92-66.57-45.92-67.01v67h-.41s0-67.72,0-67.92h-.56s11.18.03,11.18.03c-.15.15,25.52,37.04,35.93,52.1V3.89h.57Z"/>
  <path class="cls-1" d="M107.76,70.39c-10.18,4.63-22.18.13-26.81-10.05-4.63-10.18-.13-22.18,10.05-26.81,10.18-4.63,22.18-.13,26.81,10.05,4.63,10.18.13,22.18-10.05,26.81ZM109.57,47.33c-4.55-10.01-12.8-16.05-18.43-13.49-5.63,2.56-6.5,12.75-1.95,22.76,4.55,10.01,12.8,16.05,18.43,13.49,5.63-2.56,6.5-12.75,1.95-22.76Z"/>
  <path class="cls-1" d="M160.63,53.55c2.02,3.03,1.4,7.03.43,8.9l-.06.12-.02-.03c-1.36,2.3-3.74,4.46-6.47,5.93.15-.06.3-.11.44-.18-9.01,5.39-23.49,5.7-34.49-1.05l5.43-4.93c-.04-.11-.05-.17-.05-.17.03.04.07.09.1.13l2.58-2.34c3.17,5.41,11.28,10.64,20.07,9.94,1.16-.21,2.3-.51,3.4-.92.72-.27,1.43-.6,2.12-.97,5.3-2.86,4.78-7.19-.96-9.45-3.57-1.4-7.34-2.21-9.97-2.65-8.38-1.39-14.21-4.12-16.88-7.87-1.74-2.45-2.63-12.13,6.68-16.19,5.03-1.87,10.82-1.6,15.9-.07,8.22,2.62,13.24,7.95,13.24,12.4l-7.13.02c.95-2.65-.57-7.57-5.52-10.83-2.03-1.34-4.58-2.07-7.22-2.23-3.05-.19-6.14.17-8.97,1.22-.03.01-.07.02-.1.04-5.87,2.24-6.15,7.83-.39,10.24,3.31,1.39,6.82,2.16,9.29,2.57,9.55,1.59,15.97,4.47,18.55,8.34Z"/>
  <path class="cls-1" d="M230.06,31.39l-20.71,40.53-.25-.13-.02.04s-.03-.05-.05-.08l-.18-.09.05-.11c-7.8-12.58-21.82-19.96-21.82-40.37h.49v.02h9.37c-.64,17.97,13.12,24.03,16.59,31.26l16.02-31.35.5.26Z"/>
  <path class="cls-1" d="M241.33,60.28c4.7,7.49,11.42,11.59,16.24,9.4,2.73-1.24,4.34-4.28,4.75-8.22l1.24,4.49c-1.65,1.63-3.62,3.01-5.86,4.03-10.18,4.63-22.18.13-26.81-10.05-4.63-10.18-.13-22.18,10.05-26.81,9.81-4.46,21.31-.44,26.27,8.96l-.04.03s.06-.02.09-.04l.19.53c-1.1.39-2.14.84-3.11,1.33l-4.78,3.09s0,0,0,0c-2.23,1.75-4.13,3.69-5.91,5.5-3.76,3.82-7.19,7.32-12.32,7.75ZM253.25,52.14c1.82-1.86,3.77-3.84,6.07-5.63-4.59-9.75-12.69-15.59-18.23-13.07-5.63,2.56-6.5,12.75-1.95,22.76.57,1.25,1.2,2.44,1.87,3.56,5.04-.3,8.39-3.69,12.24-7.62Z"/>
  <path class="cls-1" d="M343.54,71.89h-6.92v-.09h-2.73c-3.64,0-6.59-2.94-6.6-6.58,0-3.32-.02-7.25-.04-10.18,0-12.64-4.14-19.53-10-21.2-3.35-.95-7.51-.36-12.47,2.64,1.8,2.04,3.23,4.48,4.24,7.09.63,1.64,1.55,6.12,1.55,13.68.03,3.13.06,6.57.08,9.33.26,1.26.85,2.37,1.79,3.33,1.3,1.33,2.99,1.99,5.07,1.99h-6.92v-.09h-2.73c-3.64,0-6.59-2.94-6.6-6.58,0-3.32-.02-7.25-.04-10.18,0-12.64-4.14-19.53-10-21.2-3.31-.94-7.43-.37-12.32,2.55,1.53,2.01,2.7,4.87,2.7,9.65v18.99c0,1.92.65,3.55,1.95,4.87,1.3,1.33,2.99,1.99,5.07,1.99h-9.43c-2.08,0-3.8-.66-5.15-1.99-1.35-1.33-2.03-2.95-2.03-4.87l-.3-38.43c0,5.03,4,5.91,6.91,9.45,11.34-8.12,20.31-5.92,25.88.11,15.36-11.11,26.41-3.29,30.55,7.41.63,1.64,1.55,6.12,1.55,13.68.03,3.13.06,6.57.08,9.33.26,1.26.85,2.37,1.79,3.33,1.3,1.33,2.99,1.99,5.07,1.99h0Z"/>
  <path class="cls-1" d="M371.25,70.39c-10.18,4.63-22.18.13-26.81-10.05-4.63-10.18-.13-22.18,10.05-26.81,10.18-4.63,22.18-.13,26.81,10.05,4.63,10.18.13,22.18-10.05,26.81ZM373.05,47.33c-4.55-10.01-12.8-16.05-18.43-13.49-5.63,2.56-6.5,12.75-1.95,22.76,4.55,10.01,12.8,16.05,18.43,13.49s6.5-12.75,1.95-22.76Z"/>
  <path class="cls-1" d="M424.12,53.55c2.02,3.03,1.4,7.03.43,8.9l-.06.12-.02-.03c-1.36,2.3-3.74,4.46-6.47,5.93.15-.06.3-.11.44-.18-9.01,5.39-23.49,5.7-34.49-1.05l5.43-4.93c-.04-.11-.05-.17-.05-.17.03.04.07.09.1.13l2.58-2.34c3.17,5.41,11.28,10.64,20.07,9.94,1.16-.21,2.3-.51,3.4-.92.72-.27,1.43-.6,2.12-.97,5.3-2.86,4.78-7.19-.96-9.45-3.57-1.4-7.34-2.21-9.97-2.65-8.38-1.39-14.21-4.12-16.88-7.87-1.74-2.45-2.63-12.13,6.68-16.19,5.03-1.87,10.82-1.6,15.9-.07,8.22,2.62,13.24,7.95,13.24,12.4l-7.13.02c.95-2.65-.57-7.57-5.52-10.83-2.03-1.34-4.58-2.07-7.22-2.23-3.05-.19-6.14.17-8.97,1.22-.03.01-.07.02-.1.04-5.87,2.24-6.15,7.83-.39,10.24,3.31,1.39,6.82,2.16,9.29,2.57,9.55,1.59,15.97,4.47,18.55,8.34Z"/>
  <path class="cls-1" d="M463.49,60.28c4.7,7.49,11.42,11.59,16.24,9.4,2.73-1.24,4.34-4.28,4.75-8.22l1.24,4.49c-1.65,1.63-3.62,3.01-5.86,4.03-10.18,4.63-22.18.13-26.81-10.05-4.63-10.18-.13-22.18,10.05-26.81,9.81-4.46,21.31-.44,26.27,8.96l-.04.03s.06-.02.09-.04l.19.53c-1.1.39-2.14.84-3.11,1.33l-4.78,3.09s0,0,0,0c-2.23,1.75-4.13,3.69-5.91,5.5-3.76,3.82-7.19,7.32-12.32,7.75ZM475.4,52.14c1.82-1.86,3.77-3.84,6.07-5.63-4.59-9.75-12.69-15.59-18.23-13.07-5.63,2.56-6.5,12.75-1.95,22.76.57,1.25,1.2,2.44,1.87,3.56,5.04-.3,8.39-3.69,12.24-7.62Z"/>
  <path class="cls-1" d="M532.74,71.76v-.09h-2.73c-3.64,0-6.59-2.94-6.6-6.58,0-3.32-.02-7.25-.04-10.18,0-12.64-4.14-19.53-10-21.2-3.31-.94-7.43-.37-12.32,2.55,1.53,2.01,2.7,4.86,2.7,9.64v18.99c0,1.92.65,3.55,1.95,4.87,1.3,1.33,2.99,1.99,5.07,1.99h-9.43c-2.08,0-3.8-.66-5.15-1.99-1.35-1.32-2.03-2.95-2.03-4.87l-.3-38.43c0,5.03,4,5.91,6.91,9.45,15.27-10.94,26.27-3.14,30.4,7.52.63,1.64,1.55,6.12,1.55,13.68.03,3.13.06,6.57.08,9.33.26,1.26.85,2.37,1.79,3.33,1.3,1.33,2.99,1.99,5.07,1.99h-6.92Z"/>
  <path class="cls-1" d="M580.56,71.76h-9.43c-2.08,0-3.79-.66-5.15-1.99-1.35-1.32-2.03-2.95-2.03-4.87l-.3-61.06c0,7.91,9.89,5.54,9.89,19.43v41.63c0,1.92.65,3.55,1.95,4.87,1.3,1.33,2.99,1.99,5.07,1.99Z"/>
  <path class="cls-1" d="M626.13,72.17h-9.43c-2.08,0-3.8-.66-5.15-1.99-1.35-1.33-2.03-2.95-2.03-4.87l.29-22.71c-.24,1.42-1.61,4.17-8.22,6.18-15.07,5.25-13.59,21.86.91,19.16,0,0-13.41,6.93-18.45,3.08-6.77-5.72-2.21-20.71,18.61-23.42,7.59-1.6,6.86-7.42,6.86-7.42,0-2.03-.87-4.91-2.17-6.21-1.25-1.15-3.41-1.73-5.69-1.79-6.96.3-9.92,6.74-10.12,10.17l-5.33-1.85c1.22-5.07,9.92-9.23,17.65-8.87,5.23.11,10.79,2.37,13.49,7.34,1.17,1.79,1.75,3.86,1.75,6.2v20.12c0,1.92.65,3.55,1.95,4.87,1.3,1.33,2.99,1.99,5.07,1.99Z"/>
  <path class="cls-1" d="M676.54,70.61c-7.35,1.58-13.9-3.59-15.63-5.11-.46-.32-.89-.67-1.29-1.05v.44c0,1.92.65,3.55,1.95,4.87,1.3,1.33,2.99,1.99,5.07,1.99h-9.43c-2.08,0-3.8-.66-5.15-1.99-1.35-1.32-2.03-2.95-2.03-4.87l-.11-22.14s-.07.06-.11.1c.04-.04.08-.07.11-.1l-.19-38.92c0,7.91,9.89,5.54,9.89,19.43v12.18c26.85-14.61,38.06,28.14,16.92,35.16ZM659.62,36.41v27.19c.78.82,1.68,1.52,2.7,2.09,22.39,5.98,20.26-38.64-2.7-29.28Z"/>
  <path class="cls-1" d="M719.96,70.39c-10.18,4.63-22.18.13-26.81-10.05-4.63-10.18-.13-22.18,10.05-26.81,10.18-4.63,22.18-.13,26.81,10.05,4.63,10.18.13,22.18-10.05,26.81ZM721.76,47.33c-4.55-10.01-12.8-16.05-18.43-13.49-5.63,2.56-6.5,12.75-1.95,22.76,4.55,10.01,12.8,16.05,18.43,13.49,5.63-2.56,6.5-12.75,1.95-22.76Z"/>
  <path class="cls-1" d="M780.04,71.76h-9.43c-2.08,0-3.79-.66-5.15-1.99-1.35-1.33-2.03-2.95-2.03-4.87v-.32c-.37.33-.75.64-1.16.93-1.73,1.52-8.28,6.68-15.63,5.11-21.07-7-10.01-49.49,16.64-35.32l-.15-31.47c0,7.91,9.89,5.54,9.89,19.44v19.26c.12.11.23.21.35.33-.12-.11-.24-.2-.35-.31v22.35c0,1.92.65,3.55,1.95,4.87,1.3,1.33,2.99,1.99,5.07,1.99ZM763.43,63.74l-.13-27.44c-22.71-8.89-24.73,35.34-2.43,29.39.96-.54,1.82-1.19,2.57-1.95Z"/>
  <path class="cls-1" d="M825.62,72.17h-9.43c-2.08,0-3.8-.66-5.15-1.99-1.35-1.33-2.03-2.95-2.03-4.87l.29-22.71c-.24,1.42-1.61,4.17-8.22,6.18-15.07,5.25-13.59,21.86.91,19.16,0,0-13.41,6.93-18.45,3.08-6.77-5.72-2.21-20.71,18.61-23.42,7.59-1.6,6.86-7.42,6.86-7.42,0-2.03-.87-4.91-2.17-6.21-1.25-1.15-3.41-1.73-5.69-1.79-6.96.3-9.92,6.74-10.12,10.17l-5.33-1.85c1.22-5.07,9.92-9.23,17.65-8.87,5.23.11,10.79,2.37,13.49,7.34,1.17,1.79,1.75,3.86,1.75,6.2v20.12c0,1.92.65,3.55,1.95,4.87,1.3,1.33,2.99,1.99,5.07,1.99Z"/>
  <path class="cls-1" d="M839.5,78l-5.03-5.03,5.03-5.02,5.03,5.02-5.03,5.03ZM834.67,64.21V4.69h9.93v59.51h-9.93Z"/>
  <path class="cls-1" d="M5.09,0l5.03,5.03-5.03,5.02L.07,5.03,5.09,0ZM9.93,13.8v59.51H0V13.8h9.93Z"/>
</svg>